<svg id="logosandtypes_com" xmlns="http://www.w3.org/2000/svg" viewBox="0 0 150 150"><path d="M0 0h150v150H0V0z" fill="none"/><path d="M103.4 99.2c12.9-7.5 20.7-21.4 20.5-36.3C124 37.5 103.8 19 76.2 19H29.1v112h98.8l-24.5-31.8zm-27.9-2.3H63.6V53.3h14.7c5.3 0 10.9 3.4 10.9 9.7 0 5.8-4.2 9.6-10.4 9.6h-8.1l17.5 22.7c-4.1 1.1-8.4 1.6-12.7 1.6m23.6-34.2c0-10.9-9-19.1-20.9-19.1H53.9v62.9h21.6c6.5.1 12.9-1 19-3.1l13.8 18H38.7V28.7h37.5c22.4 0 38.1 14.1 38.1 34.1.2 11.9-6.2 23-16.7 28.7l-9.3-12C95 77 99.1 70.7 99.1 62.7" fill="#ef2637"/></svg>